<svg width="36" height="36" viewBox="0 0 36 36" fill="none" xmlns="http://www.w3.org/2000/svg">
<g clip-path="url(#clip0_701_10)">
<path d="M8 17.9896C8 18.5078 8.18653 18.9637 8.58031 19.3575L25.0155 35.4198C25.3679 35.7927 25.8238 35.9792 26.3627 35.9792C27.4404 35.9792 28.2694 35.171 28.2694 34.0933C28.2694 33.5543 28.0414 33.0984 27.7098 32.7461L12.6218 17.9896L27.7098 3.23316C28.0414 2.88082 28.2694 2.40414 28.2694 1.88601C28.2694 0.808289 27.4404 0 26.3627 0C25.8238 0 25.3679 0.186528 25.0155 0.538859L8.58031 16.6217C8.18653 16.9948 8 17.4715 8 17.9896Z" fill="white" fill-opacity="0.85"/>
</g>
<defs>
<clipPath id="clip0_701_10">
<rect width="20.2694" height="36" fill="white" transform="translate(8)"/>
</clipPath>
</defs>
</svg>
