<svg width="36" height="36" viewBox="0 0 36 36" fill="none" xmlns="http://www.w3.org/2000/svg">
<g clip-path="url(#clip0_701_10)">
<path d="M28.2694 17.9896C28.2694 17.4715 28.0622 16.9948 27.6684 16.6217L11.2539 0.538859C10.8808 0.186528 10.4249 0 9.88601 0C8.82902 0 8 0.808289 8 1.88601C8 2.40414 8.20725 2.88082 8.53886 3.23316L23.6269 17.9896L8.53886 32.7461C8.20725 33.0984 8 33.5543 8 34.0933C8 35.171 8.82902 35.9792 9.88601 35.9792C10.4249 35.9792 10.8808 35.7927 11.2539 35.4198L27.6684 19.3575C28.0622 18.9637 28.2694 18.5078 28.2694 17.9896Z" fill="white" fill-opacity="0.85"/>
</g>
<defs>
<clipPath id="clip0_701_10">
<rect width="20.2694" height="36" fill="white" transform="translate(8)"/>
</clipPath>
</defs>
</svg>
